<svg xmlns="http://www.w3.org/2000/svg" width="480" height="192" viewBox="0 0 480 192"><g><path fill="#818181" d="M51.7 39.73v-4.135c0-.622.03-1.1.085-1.442.06-.338.188-.674.394-1.005.206-.33.533-.553.988-.684.457-.125 1.066-.19 1.824-.19h4.13V24h-6.61c-3.825 0-6.573.907-8.24 2.72-1.668 1.818-2.505 4.493-2.505 8.028v4.978h-4.95V48h4.95v24H51.7V48h6.61l.874-8.27H51.7zM168 33.143c-1.89.81-3.78 1.316-5.664 1.523 2.13-1.282 3.573-3.09 4.325-5.422-1.956 1.153-4.03 1.948-6.248 2.377-1.947-2.07-4.343-3.112-7.188-3.112-2.725 0-5.04.96-6.965 2.876-1.912 1.92-2.875 4.24-2.875 6.958 0 .734.08 1.484.242 2.255-4.017-.205-7.784-1.213-11.314-3.03-3.52-1.816-6.51-4.24-8.964-7.263-.895 1.522-1.345 3.18-1.345 4.964 0 1.688.395 3.247 1.19 4.69.792 1.44 1.85 2.606 3.202 3.5-1.587-.06-3.068-.477-4.45-1.248v.122c0 2.37.747 4.457 2.233 6.258 1.5 1.793 3.375 2.927 5.657 3.395-.855.217-1.722.335-2.59.335-.567 0-1.194-.05-1.857-.156.63 1.976 1.786 3.59 3.473 4.856 1.69 1.275 3.592 1.924 5.725 1.97-3.575 2.797-7.645 4.2-12.212 4.2-.875 0-1.667-.035-2.375-.128 4.567 2.953 9.604 4.43 15.1 4.43 3.5 0 6.777-.553 9.846-1.66 3.064-1.105 5.684-2.588 7.852-4.447 2.175-1.856 4.046-3.986 5.623-6.405 1.574-2.423 2.747-4.945 3.518-7.568.772-2.637 1.16-5.264 1.16-7.902 0-.573-.013-.997-.033-1.286 1.932-1.402 3.578-3.096 4.935-5.08z"/><g fill="#818181"><path d="M243.614 54.564c-.515-.668-1.073-1.314-1.688-1.91-.613-.577-1.226-1.103-1.846-1.6-.614-.472-1.176-.94-1.69-1.372-.502-.454-.92-.92-1.242-1.397-.31-.474-.473-.966-.473-1.46 0-.698.227-1.35.66-1.958.443-.596.98-1.184 1.615-1.76.634-.564 1.267-1.18 1.9-1.856.636-.676 1.176-1.564 1.616-2.667.444-1.104.67-2.368.67-3.795 0-1.69-.375-3.31-1.125-4.875-.76-1.552-1.815-2.768-3.176-3.633h3.89l3.91-2.28h-12.608c-1.785 0-3.587.19-5.393.582-2.673.593-4.923 1.952-6.75 4.08s-2.74 4.53-2.74 7.223c0 2.853 1.026 5.22 3.073 7.1 2.042 1.88 4.5 2.82 7.366 2.82.58 0 1.257-.05 2.025-.144-.042.158-.11.367-.203.626-.096.258-.172.468-.234.616-.052.157-.098.345-.143.563-.04.227-.064.448-.064.68 0 1.266.625 2.707 1.85 4.303-1.458.042-2.906.156-4.32.384-1.427.225-2.922.562-4.473 1.036-1.563.467-2.954 1.158-4.188 2.052-1.225.896-2.146 1.964-2.77 3.188-.708 1.418-1.06 2.725-1.06 3.896 0 1.297.284 2.445.866 3.508.572 1.042 1.314 1.89 2.223 2.568.898.66 1.946 1.223 3.126 1.658 1.178.46 2.35.785 3.517.976 1.167.19 2.315.284 3.446.284 5.155 0 9.19-1.26 12.115-3.785 2.695-2.344 4.037-5.037 4.037-8.122 0-1.11-.152-2.118-.476-3.082-.31-.944-.73-1.753-1.242-2.444zm-11.116-10.48c-.98 0-1.917-.252-2.805-.75-.876-.507-1.636-1.152-2.25-1.95-.612-.797-1.15-1.7-1.616-2.704-.454-.994-.8-1.997-1.018-2.99-.227-1.004-.332-1.96-.332-2.857 0-1.85.483-3.438 1.465-4.76.983-1.332 2.366-1.988 4.16-1.988 1.27 0 2.417.394 3.447 1.175 1.033.79 1.834 1.786 2.418 3 .588 1.216 1.037 2.464 1.36 3.768.31 1.294.47 2.52.47 3.682 0 1.92-.42 3.468-1.25 4.625-.835 1.166-2.192 1.748-4.05 1.748zm7.973 21.648c-.533.92-1.244 1.624-2.155 2.138-.897.515-1.87.888-2.89 1.128-1.032.24-2.122.344-3.25.344-1.227 0-2.457-.145-3.662-.427-1.212-.288-2.368-.72-3.484-1.316-1.105-.576-1.997-1.4-2.68-2.43-.684-1.03-1.026-2.18-1.026-3.492 0-1.158.258-2.188.786-3.09.518-.895 1.177-1.63 1.992-2.156.803-.548 1.743-.982 2.82-1.344 1.076-.338 2.115-.578 3.118-.713 1.003-.137 2.017-.195 3.065-.195.634 0 1.11.012 1.437.053.116.06.405.277.884.61.47.32.783.55.943.655.164.103.464.334.893.656.438.328.746.568.928.744.188.155.448.396.798.743.337.31.595.592.758.848.164.236.37.527.607.864.24.356.404.688.51 1.008.093.308.187.66.266 1.036.09.375.13.76.13 1.168.007 1.223-.255 2.273-.79 3.168zM256.615 31.383V24h-3.698v7.383h-7.382v3.698h7.382v7.386h3.698V35.08H264v-3.697z"/></g><g fill="#818181"><path d="M416.73 57.53c-1.59 0-2.945.58-4.05 1.683-1.13 1.125-1.678 2.466-1.678 4.054 0 1.59.546 2.947 1.677 4.055 1.104 1.125 2.465 1.673 4.05 1.673 1.596 0 2.933-.548 4.054-1.673 1.107-1.107 1.662-2.467 1.662-4.055 0-1.59-.555-2.932-1.662-4.054-1.12-1.104-2.457-1.682-4.053-1.682zM429.908 50.09c-2.24-2.275-4.825-4.076-7.737-5.417-2.884-1.344-5.93-2.144-9.112-2.397h-.146c-.507 0-.95.166-1.278.502-.415.363-.632.825-.632 1.397v4.04c0 .498.172.916.496 1.28.322.358.734.55 1.23.595 4.556.425 8.44 2.277 11.673 5.504 3.227 3.234 5.062 7.118 5.508 11.674.04.498.233.908.593 1.23.364.328.78.497 1.283.497h4.038c.566 0 1.047-.218 1.39-.628.395-.408.544-.87.525-1.427-.264-3.18-1.074-6.228-2.406-9.114-1.356-2.91-3.147-5.497-5.422-7.736zM449.416 52.045c-2.14-4.776-5.053-8.997-8.764-12.7-3.717-3.716-7.926-6.64-12.698-8.76-4.75-2.13-9.752-3.323-14.954-3.588h-.09c-.51 0-.955.184-1.316.54-.406.363-.594.82-.594 1.37v4.267c0 .496.175.932.51 1.296.354.367.772.566 1.272.588 4.28.253 8.338 1.275 12.196 3.048 3.838 1.763 7.178 4.064 10.026 6.903 2.828 2.83 5.118 6.175 6.896 10.015 1.774 3.856 2.775 7.913 3.008 12.198.033.498.218.914.586 1.27.362.332.813.508 1.324.508h4.275c.545 0 1.005-.185 1.363-.588.408-.407.562-.865.54-1.41-.256-5.208-1.446-10.206-3.58-14.957z"/></g><g fill="#818181"><path d="M356.072 38.83c.517-1.562.786-3.18.786-4.848 0-2.23-.5-4.332-1.484-6.287-2.06 0-3.864.364-5.446 1.125-1.586.742-3.375 1.91-5.392 3.494-2.537-.622-5.23-.93-8.083-.93-3.114 0-6.078.343-8.91 1.01-2.06-1.616-3.87-2.8-5.444-3.563-1.586-.756-3.41-1.135-5.482-1.135-.982 1.957-1.475 4.058-1.475 6.287 0 1.69.26 3.328.775 4.902-2.62 3.064-3.918 6.866-3.918 11.422 0 3.988.594 7.176 1.786 9.552.637 1.26 1.456 2.35 2.48 3.32 1.015.953 2.185 1.74 3.493 2.343 1.308.584 2.625 1.082 3.942 1.472 1.337.407 2.805.69 4.403.872 1.612.186 3.026.3 4.26.35 1.226.07 2.59.09 4.09.09 1.774 0 3.374-.044 4.833-.134 1.428-.094 3.068-.293 4.935-.627 1.862-.336 3.48-.795 4.91-1.366 1.41-.587 2.77-1.405 4.053-2.48 1.307-1.078 2.325-2.37 3.05-3.84 1.17-2.39 1.764-5.57 1.764-9.555 0-4.57-1.308-8.396-3.928-11.47zm-3.464 20.985c-.61 1.26-1.384 2.25-2.343 2.963-.938.73-2.11 1.307-3.516 1.734-1.41.445-2.74.73-4.037.844-1.282.142-2.722.216-4.296.216h-4.848c-1.575 0-3.007-.074-4.296-.216-1.29-.116-2.642-.4-4.042-.844-1.407-.427-2.58-1.003-3.52-1.734-.942-.715-1.715-1.704-2.33-2.963-.623-1.263-.93-2.73-.93-4.42 0-2.32.658-4.286 1.993-5.894 1.33-1.614 3.122-2.418 5.394-2.418.83 0 2.708.196 5.62.6 1.376.22 2.885.32 4.54.32 1.647 0 3.163-.1 4.526-.32 2.968-.403 4.843-.6 5.617-.6 2.276 0 4.07.804 5.41 2.42 1.325 1.604 1.98 3.574 1.98 5.894.003 1.69-.312 3.156-.925 4.42zM328.856 50.824c-.585-.658-1.286-.984-2.09-.984-.815 0-1.5.326-2.086.984-.59.654-1.005 1.392-1.247 2.2-.248.8-.365 1.59-.365 2.372 0 .76.117 1.55.365 2.355.242.806.656 1.542 1.247 2.196.585.652 1.27.98 2.085.98.805 0 1.502-.328 2.09-.98.59-.654 1.005-1.39 1.24-2.195.24-.805.357-1.596.357-2.354 0-.782-.116-1.57-.357-2.373-.235-.807-.65-1.547-1.24-2.2zM347.31 50.824c-.576-.658-1.27-.984-2.07-.984-.808 0-1.51.326-2.105.984-.578.654-.994 1.392-1.23 2.2-.237.8-.362 1.59-.362 2.372 0 .76.125 1.55.363 2.355.235.806.65 1.542 1.23 2.196.59.652 1.296.98 2.103.98.8 0 1.496-.328 2.07-.98.598-.654 1.018-1.39 1.257-2.195.24-.805.344-1.596.344-2.354 0-.782-.106-1.57-.343-2.373-.24-.807-.66-1.547-1.256-2.2z"/></g><path fill="#fff" d="M51.7 135.73v-4.135c0-.622.03-1.1.085-1.442.06-.338.188-.674.394-1.005.206-.33.533-.553.988-.685.457-.125 1.066-.19 1.824-.19h4.13V120h-6.61c-3.825 0-6.573.907-8.24 2.72-1.668 1.818-2.505 4.493-2.505 8.028v4.98h-4.95V144h4.95v24H51.7v-24h6.61l.874-8.27H51.7zM168 129.143c-1.89.812-3.78 1.316-5.664 1.523 2.13-1.282 3.573-3.09 4.325-5.422-1.956 1.152-4.03 1.947-6.248 2.377-1.947-2.07-4.343-3.112-7.188-3.112-2.725 0-5.04.96-6.965 2.877-1.912 1.92-2.875 4.24-2.875 6.957 0 .734.08 1.484.242 2.256-4.017-.205-7.784-1.214-11.314-3.03-3.52-1.816-6.51-4.24-8.964-7.264-.895 1.522-1.345 3.18-1.345 4.964 0 1.688.395 3.246 1.19 4.69.792 1.44 1.85 2.606 3.202 3.5-1.587-.06-3.068-.477-4.45-1.247v.122c0 2.37.747 4.457 2.233 6.26 1.5 1.793 3.375 2.926 5.657 3.394-.855.218-1.722.335-2.59.335-.567 0-1.194-.05-1.857-.155.63 1.977 1.786 3.592 3.473 4.857 1.69 1.274 3.592 1.924 5.725 1.97-3.575 2.797-7.645 4.2-12.212 4.2-.875 0-1.667-.035-2.375-.13 4.567 2.954 9.604 4.43 15.1 4.43 3.5 0 6.777-.552 9.846-1.658 3.064-1.106 5.684-2.59 7.852-4.448 2.175-1.856 4.046-3.986 5.623-6.405 1.574-2.422 2.747-4.944 3.518-7.566.772-2.637 1.16-5.265 1.16-7.902 0-.572-.013-.997-.033-1.286 1.932-1.404 3.578-3.097 4.935-5.083z"/><g fill="#fff"><path d="M243.614 150.564c-.515-.668-1.073-1.314-1.688-1.91-.613-.576-1.226-1.102-1.846-1.598-.614-.474-1.176-.94-1.69-1.373-.502-.454-.92-.92-1.242-1.397-.31-.474-.473-.966-.473-1.46 0-.698.227-1.35.66-1.957.443-.598.98-1.186 1.615-1.762.634-.564 1.267-1.18 1.9-1.856.636-.676 1.176-1.564 1.616-2.668.444-1.104.67-2.368.67-3.795 0-1.69-.375-3.313-1.125-4.876-.76-1.553-1.815-2.768-3.176-3.634h3.89l3.91-2.28h-12.608c-1.785 0-3.587.19-5.393.582-2.673.593-4.923 1.95-6.75 4.08-1.827 2.128-2.74 4.53-2.74 7.223 0 2.854 1.026 5.22 3.073 7.1 2.042 1.88 4.5 2.822 7.366 2.822.58 0 1.257-.05 2.025-.145-.042.156-.11.365-.203.625-.096.258-.172.468-.234.615-.052.157-.098.345-.143.562-.04.228-.064.45-.064.68 0 1.267.625 2.707 1.85 4.305-1.458.04-2.906.154-4.32.383-1.427.226-2.922.562-4.473 1.036-1.563.466-2.954 1.157-4.188 2.05-1.225.897-2.146 1.965-2.77 3.19-.708 1.417-1.06 2.724-1.06 3.895 0 1.297.284 2.444.866 3.508.572 1.043 1.314 1.89 2.223 2.568.898.66 1.946 1.224 3.126 1.66 1.178.46 2.35.784 3.517.975 1.167.19 2.315.284 3.446.284 5.155 0 9.19-1.263 12.115-3.786 2.695-2.344 4.037-5.037 4.037-8.12 0-1.112-.152-2.12-.476-3.085-.31-.946-.73-1.754-1.242-2.446zm-11.116-10.48c-.98 0-1.917-.252-2.805-.75-.876-.506-1.636-1.15-2.25-1.948-.612-.798-1.15-1.702-1.616-2.705-.454-.992-.8-1.996-1.018-2.99-.227-1.002-.332-1.96-.332-2.855 0-1.85.483-3.438 1.465-4.76.983-1.332 2.366-1.988 4.16-1.988 1.27 0 2.417.394 3.447 1.175 1.033.79 1.834 1.786 2.418 3 .588 1.216 1.037 2.464 1.36 3.768.31 1.294.47 2.52.47 3.682 0 1.92-.42 3.468-1.25 4.625-.835 1.164-2.192 1.747-4.05 1.747zm7.973 21.648c-.533.92-1.244 1.624-2.155 2.138-.897.515-1.87.888-2.89 1.128-1.032.24-2.122.344-3.25.344-1.227 0-2.457-.145-3.662-.426-1.212-.288-2.368-.72-3.484-1.316-1.105-.575-1.997-1.4-2.68-2.43-.684-1.03-1.026-2.178-1.026-3.49 0-1.158.258-2.19.786-3.09.518-.896 1.177-1.632 1.992-2.156.803-.55 1.743-.982 2.82-1.345 1.076-.34 2.115-.578 3.118-.715 1.003-.137 2.017-.195 3.065-.195.634 0 1.11.013 1.437.054.116.062.405.276.884.61.47.32.783.55.943.655.164.102.464.333.893.655.438.328.746.568.928.743.188.155.448.396.798.743.337.31.595.592.758.848.164.236.37.527.607.864.24.356.404.688.51 1.008.093.308.187.66.266 1.036.09.375.13.76.13 1.168.007 1.223-.255 2.273-.79 3.168zM256.615 127.383V120h-3.698v7.383h-7.382v3.698h7.382v7.387h3.698v-7.386H264v-3.697z"/></g><g fill="#fff"><path d="M416.73 153.53c-1.59 0-2.945.58-4.05 1.683-1.13 1.125-1.678 2.466-1.678 4.053 0 1.59.546 2.947 1.677 4.055 1.104 1.126 2.465 1.675 4.05 1.675 1.596 0 2.933-.55 4.054-1.674 1.107-1.106 1.662-2.466 1.662-4.054 0-1.59-.555-2.932-1.662-4.053-1.12-1.104-2.457-1.682-4.053-1.682zM429.908 146.09c-2.24-2.274-4.825-4.075-7.737-5.416-2.884-1.344-5.93-2.145-9.112-2.397h-.146c-.507 0-.95.165-1.278.502-.415.36-.632.824-.632 1.396v4.04c0 .497.172.916.496 1.28.322.357.734.55 1.23.594 4.556.426 8.44 2.277 11.673 5.504 3.227 3.234 5.062 7.12 5.508 11.674.04.498.233.908.593 1.23.364.328.78.497 1.283.497h4.038c.566 0 1.047-.218 1.39-.628.395-.408.544-.87.525-1.428-.264-3.18-1.074-6.23-2.406-9.114-1.356-2.91-3.147-5.498-5.422-7.736zM449.416 148.045c-2.14-4.775-5.053-8.996-8.764-12.7-3.717-3.716-7.926-6.64-12.698-8.76-4.75-2.13-9.752-3.32-14.954-3.587h-.09c-.51 0-.955.184-1.316.54-.406.362-.594.82-.594 1.37v4.266c0 .496.175.933.51 1.297.354.368.772.567 1.272.59 4.28.253 8.338 1.274 12.196 3.048 3.838 1.763 7.178 4.064 10.026 6.902 2.828 2.83 5.118 6.177 6.896 10.017 1.774 3.856 2.775 7.913 3.008 12.198.033.498.218.914.586 1.27.362.33.813.507 1.324.507h4.275c.545 0 1.005-.186 1.363-.588.408-.408.562-.865.54-1.41-.256-5.21-1.446-10.208-3.58-14.96z"/></g><g fill="#fff"><path d="M356.072 134.83c.517-1.562.786-3.18.786-4.848 0-2.23-.5-4.332-1.484-6.287-2.06 0-3.864.364-5.446 1.125-1.586.742-3.375 1.91-5.392 3.494-2.537-.622-5.23-.93-8.083-.93-3.114 0-6.078.343-8.91 1.01-2.06-1.615-3.87-2.8-5.444-3.562-1.586-.757-3.41-1.137-5.482-1.137-.982 1.957-1.475 4.06-1.475 6.287 0 1.69.26 3.328.775 4.902-2.62 3.062-3.918 6.865-3.918 11.42 0 3.99.594 7.177 1.786 9.553.637 1.26 1.456 2.35 2.48 3.32 1.015.953 2.185 1.74 3.493 2.343 1.308.583 2.625 1.08 3.942 1.472 1.337.406 2.805.69 4.403.87 1.612.187 3.026.302 4.26.35 1.226.07 2.59.093 4.09.093 1.774 0 3.374-.045 4.833-.136 1.428-.095 3.068-.294 4.935-.628 1.862-.337 3.48-.795 4.91-1.366 1.41-.588 2.77-1.405 4.053-2.48 1.307-1.078 2.325-2.37 3.05-3.84 1.17-2.39 1.764-5.57 1.764-9.555 0-4.57-1.308-8.394-3.928-11.47zm-3.464 20.984c-.61 1.26-1.384 2.25-2.343 2.964-.938.73-2.11 1.308-3.516 1.734-1.41.445-2.74.73-4.037.844-1.282.142-2.722.216-4.296.216h-4.848c-1.575 0-3.007-.074-4.296-.216-1.29-.116-2.642-.4-4.042-.844-1.407-.427-2.58-1.003-3.52-1.734-.942-.715-1.715-1.704-2.33-2.964-.623-1.262-.93-2.73-.93-4.42 0-2.32.658-4.286 1.993-5.895 1.33-1.616 3.122-2.42 5.394-2.42.83 0 2.708.196 5.62.6 1.376.22 2.885.32 4.54.32 1.647 0 3.163-.1 4.526-.32 2.968-.403 4.843-.6 5.617-.6 2.276 0 4.07.804 5.41 2.42 1.325 1.604 1.98 3.574 1.98 5.895.003 1.69-.312 3.158-.925 4.42zM328.856 146.824c-.585-.658-1.286-.984-2.09-.984-.815 0-1.5.326-2.086.984-.59.654-1.005 1.393-1.247 2.2-.248.8-.365 1.59-.365 2.37 0 .76.117 1.55.365 2.356.242.805.656 1.54 1.247 2.195.585.652 1.27.98 2.085.98.805 0 1.502-.328 2.09-.98.59-.654 1.005-1.39 1.24-2.195.24-.806.357-1.597.357-2.355 0-.782-.116-1.57-.357-2.372-.235-.806-.65-1.547-1.24-2.2zM347.31 146.824c-.576-.658-1.27-.984-2.07-.984-.808 0-1.51.326-2.105.984-.578.654-.994 1.393-1.23 2.2-.237.8-.362 1.59-.362 2.37 0 .76.125 1.55.363 2.356.235.805.65 1.54 1.23 2.195.59.652 1.296.98 2.103.98.8 0 1.496-.328 2.07-.98.598-.654 1.018-1.39 1.257-2.195.24-.806.344-1.597.344-2.355 0-.782-.106-1.57-.343-2.372-.24-.806-.66-1.547-1.256-2.2z"/></g></g></svg>